<svg xmlns="http://www.w3.org/2000/svg" width="120" height="90" viewBox="0 0 120 90" fill="none">
  <rect width="120" height="90" fill="#E5E7EB"/>
  <path d="M46.5 33.75C46.5 31.8467 48.0217 30.375 49.9286 30.375H70.0714C71.9783 30.375 73.5 31.8467 73.5 33.75V56.25C73.5 58.1533 71.9783 59.625 70.0714 59.625H49.9286C48.0217 59.625 46.5 58.1533 46.5 56.25V33.75Z" stroke="#9CA3AF" stroke-width="2" stroke-linecap="round" stroke-linejoin="round"/>
  <path d="M54 39.375C54.8284 39.375 55.5 38.6242 55.5 37.875C55.5 37.1258 54.8284 36.5625 54 36.5625C53.1716 36.5625 52.5 37.1258 52.5 37.875C52.5 38.6242 53.1716 39.375 54 39.375Z" fill="#9CA3AF"/>
  <path d="M46.5 52.5L57 45L73.5 56.25" stroke="#9CA3AF" stroke-width="2" stroke-linecap="round" stroke-linejoin="round"/>
</svg>